<svg width="1037" height="1213" viewBox="0 0 1037 1213" fill="none" xmlns="http://www.w3.org/2000/svg">
<path d="M9.44868 550.665L568.694 9.17299C581.012 -2.75401 601.122 -0.623509 610.667 13.6198L1031.17 641.065C1043.41 659.336 1030.32 683.875 1008.32 683.875L858.471 683.875C843.561 683.875 831.171 695.367 830.051 710.235L794.148 1187.06C793.068 1201.41 781.113 1212.5 766.726 1212.5L223.424 1212.5C208.237 1212.5 195.924 1200.19 195.924 1185L195.924 648.51C195.924 634.449 185.668 622.489 171.771 620.344L24.3839 597.599C1.92622 594.134 -6.87632 566.471 9.44868 550.665Z" fill="white" stroke="black"/>
</svg>
